#!OML:ASF H:\Not Pregnant\Project 1\Capture day 1\Session 1\non-pregnant.ASF
:FULLY-SPECIFIED
:DEGREES
4049
root 7.47931 14.5358 33.4179 183.73 -60.2469 -174.834
lowerback -0.239943 7.49671 -1.57869
upperback -6.10796 9.55337 -4.62499
thorax -5.68567 4.61292 -4.34855
lowerneck 5.17148 -8.90685 -29.4208
upperneck 0.328523 -16.9617 39.979
head 6.13012 -9.68707 19.1036
rclavicle -3.89369e-014 -6.67916e-014
rhumerus -27.9202 -59.1398 10.1741
rradius 27.131
rwrist 40.7963
rhand -8.27806 -5.36291
rfingers 7.12502
rthumb 17.6413 -34.5826
lclavicle -3.89369e-014 -6.67916e-014
lhumerus -26.7073 26.7524 -11.8183
lradius 33.1781
lwrist 37.4644
lhand -29.6871 -9.41683
lfingers 7.12502
lthumb -3.01524 20.5416
rfemur -33.3793 -9.5473 3.55559
rtibia 21.79
rfoot 9.47385 -33.9056
rtoes -4.14798
lfemur 8.96551 -2.0581 -2.48152
ltibia 9.13908
lfoot -16.7949 16.9781
ltoes -41.8382
4050
root 7.47285 14.5422 33.4121 183.843 -60.3592 -174.859
lowerback -0.208453 7.44961 -1.55795
upperback -6.15584 9.49175 -4.55745
thorax -5.76566 4.58133 -4.2981
lowerneck 5.15504 -8.91717 -29.4781
upperneck 0.334271 -16.9605 39.9199
head 6.13097 -9.67859 19.0798
rclavicle 4.27884e-014 3.18055e-014
rhumerus -27.947 -59.3457 10.2383
rradius 27.0612
rwrist 40.9635
rhand -8.25757 -5.36531
rfingers 7.12502
rthumb 17.661 -34.5832
lclavicle 4.27884e-014 3.18055e-014
lhumerus -26.9334 26.4981 -11.5331
lradius 33.2942
lwrist 37.5928
lhand -29.6798 -9.47883
lfingers 7.12502
lthumb -3.00823 20.4797
rfemur -33.3174 -8.98895 3.29288
rtibia 21.7931
rfoot 8.62934 -34.6899
rtoes -3.78256
lfemur 8.93606 -2.08915 -2.47907
ltibia 8.95526
lfoot -16.5793 16.9234
ltoes -42.1439
4051
root 7.46651 14.5489 33.4061 183.957 -60.473 -174.889
lowerback -0.167259 7.40134 -1.52435
upperback -6.20367 9.42884 -4.49122
thorax -5.84877 4.54843 -4.257
lowerneck 5.13517 -8.92538 -29.5336
upperneck 0.341738 -16.9568 39.8647
head 6.13236 -9.66888 19.0585
rclavicle -1.22551e-013 4.29375e-014
rhumerus -27.9595 -59.5251 10.2706
rradius 27.0007
rwrist 41.1299
rhand -8.22774 -5.35786
rfingers 7.12502
rthumb 17.6897 -34.5732
lclavicle -1.22551e-013 4.29375e-014
lhumerus -27.1788 26.3008 -11.2585
lradius 33.4014
lwrist 37.631
lhand -29.6509 -9.55618
lfingers 7.12502
lthumb -2.98029 20.4027
rfemur -33.2554 -8.43191 3.03082
rtibia 21.7975
rfoot 7.71645 -35.4319
rtoes -3.5123
lfemur 8.89413 -2.12258 -2.47805
ltibia 8.79771
lfoot -16.3721 16.8595
ltoes -42.4197
4052
root 7.46052 14.5561 33.3998 184.068 -60.585 -174.914
lowerback -0.115983 7.35061 -1.47249
upperback -6.25473 9.36284 -4.42732
thorax -5.93782 4.51287 -4.22941
lowerneck 5.10785 -8.92933 -29.5891
upperneck 0.359566 -16.9505 39.8188
head 6.1387 -9.65822 19.0441
rclavicle -8.31914e-014 -8.11041e-014
rhumerus -27.9483 -59.6587 10.2514
rradius 26.9492
rwrist 41.2729
rhand -8.19403 -5.33102
rfingers 7.12502
rthumb 17.7221 -34.5434
lclavicle -8.31914e-014 -8.11041e-014
lhumerus -27.4479 26.1643 -11.0061
lradius 33.4956
lwrist 37.568
lhand -29.6045 -9.63549
lfingers 7.12502
lthumb -2.93549 20.3241
rfemur -33.2002 -7.87314 2.77615
rtibia 21.804
rfoot 6.75172 -36.1151
rtoes -3.34062
lfemur 8.83919 -2.15423 -2.47203
ltibia 8.66201
lfoot -16.1788 16.7796
ltoes -42.6418
4053
root 7.45483 14.5639 33.3931 184.18 -60.6975 -174.94
lowerback -0.0575118 7.29842 -1.40698
upperback -6.30628 9.29531 -4.36507
thorax -6.02911 4.47575 -4.21157
lowerneck 5.07725 -8.92923 -29.6458
upperneck 0.381822 -16.9412 39.7823
head 6.14734 -9.64662 19.0367
rclavicle -2.79789e-014 -7.95139e-015
rhumerus -27.9142 -59.7348 10.1854
rradius 26.9092
rwrist 41.3668
rhand -8.16381 -5.30117
rfingers 7.12502
rthumb 17.7512 -34.5109
lclavicle -2.79789e-014 -7.95139e-015
lhumerus -27.7282 26.0501 -10.7579
lradius 33.578
lwrist 37.4545
lhand -29.5716 -9.71285
lfingers 7.12502
lthumb -2.90375 20.2471
rfemur -33.1492 -7.3146 2.52574
rtibia 21.8124
rfoot 5.75446 -36.7272
rtoes -3.24526
lfemur 8.773 -2.18679 -2.46406
ltibia 8.54545
lfoot -16.0064 16.6789
ltoes -42.7927
4054
root 7.44956 14.5722 33.386 184.296 -60.8086 -174.971
lowerback 0.0106798 7.24522 -1.32924
upperback -6.35974 9.22648 -4.30656
thorax -6.12555 4.43704 -4.2054
lowerneck 5.04504 -8.92751 -29.6912
upperneck 0.406039 -16.9282 39.7424
head 6.15348 -9.63279 19.0255
rclavicle 3.49364e-014 -6.04305e-014
rhumerus -27.857 -59.7515 10.0711
rradius 26.8793
rwrist 41.402
rhand -8.12731 -5.26798
rfingers 7.12502
rthumb 17.7863 -34.4746
lclavicle 3.49364e-014 -6.04305e-014
lhumerus -28.0216 25.9714 -10.5201
lradius 33.6502
lwrist 37.2821
lhand -29.5487 -9.78606
lfingers 7.12502
lthumb -2.88158 20.1742
rfemur -33.102 -6.75491 2.27807
rtibia 21.8182
rfoot 4.7515 -37.2687
rtoes -3.2227
lfemur 8.69482 -2.2184 -2.45744
ltibia 8.45032
lfoot -15.8439 16.5698
ltoes -42.8974
